Normalized EMG Linear Envelopes
nRows=191
nColumns=4

endheader
time	 med_gas_r	  soleus_r	 tib_ant_r	
3.22681	  0.008724	  0.009958	  0.033825	
3.26008	  0.008796	  0.010065	  0.031602	
3.29335	  0.008847	  0.010153	  0.029387	
3.32661	  0.008863	  0.010215	  0.027260	
3.35988	  0.008843	  0.010246	  0.025420	
3.39315	  0.008798	  0.010237	  0.024085	
3.42641	  0.008738	  0.010183	  0.023388	
3.45968	  0.008673	  0.010088	  0.023338	
3.49294	  0.008606	  0.009978	  0.023840	
3.52621	  0.008534	  0.009892	  0.024732	
3.55948	  0.008451	  0.009871	  0.025799	
3.59274	  0.008349	  0.009935	  0.026801	
3.62601	  0.008228	  0.010083	  0.027523	
3.65927	  0.008096	  0.010288	  0.027851	
3.69254	  0.007967	  0.010511	  0.027820	
3.72581	  0.007860	  0.010710	  0.027611	
3.75907	  0.007799	  0.010845	  0.027473	
3.79234	  0.007802	  0.010887	  0.027610	
3.8256	  0.007874	  0.010821	  0.028053	
3.85887	  0.008003	  0.010659	  0.028618	
3.89214	  0.008167	  0.010448	  0.028986	
3.9254	  0.008344	  0.010256	  0.028882	
3.95867	  0.008521	  0.010154	  0.028233	
3.99194	  0.008695	  0.010177	  0.027184	
4.0252	  0.008859	  0.010304	  0.025993	
4.05847	  0.008999	  0.010471	  0.024880	
4.09173	  0.009105	  0.010605	  0.023938	
4.125	  0.009177	  0.010662	  0.023145	
4.15827	  0.009229	  0.010646	  0.022433	
4.19153	  0.009281	  0.010599	  0.021771	
4.2248	  0.009346	  0.010562	  0.021197	
4.25806	  0.009433	  0.010551	  0.020810	
4.29133	  0.009543	  0.010550	  0.020718	
4.3246	  0.009677	  0.010533	  0.020991	
4.35786	  0.009831	  0.010479	  0.021604	
4.39113	  0.010007	  0.010386	  0.022417	
4.4244	  0.010200	  0.010266	  0.023223	
4.45766	  0.010396	  0.010128	  0.023857	
4.49093	  0.010567	  0.009982	  0.024298	
4.52419	  0.010683	  0.009833	  0.024684	
4.55746	  0.010729	  0.009690	  0.025239	
4.59073	  0.010716	  0.009565	  0.026170	
4.62399	  0.010667	  0.009479	  0.027600	
4.65726	  0.010603	  0.009441	  0.029555	
4.69052	  0.010531	  0.009450	  0.031975	
4.72379	  0.010453	  0.009492	  0.034726	
4.75706	  0.010374	  0.009552	  0.037621	
4.79032	  0.010305	  0.009624	  0.040412	
4.82359	  0.010250	  0.009716	  0.042786	
4.85685	  0.010208	  0.009842	  0.044377	
4.89012	  0.010166	  0.010014	  0.044877	
4.92339	  0.010111	  0.010224	  0.044186	
4.95665	  0.010036	  0.010441	  0.042521	
4.98992	  0.009932	  0.010618	  0.040340	
5.02319	  0.009786	  0.010705	  0.038124	
5.05645	  0.009586	  0.010673	  0.036154	
5.08972	  0.009335	  0.010520	  0.034437	
5.12298	  0.009072	  0.010273	  0.032850	
5.15625	  0.008865	  0.009979	  0.031393	
5.18952	  0.008797	  0.009692	  0.030414	
5.22278	  0.008929	  0.009467	  0.030642	
5.25605	  0.009288	  0.009346	  0.033006	
5.28931	  0.009865	  0.009358	  0.038325	
5.32258	  0.010629	  0.009504	  0.047003	
5.35585	  0.011545	  0.009767	  0.058828	
5.38911	  0.012578	  0.010118	  0.072996	
5.42238	  0.013697	  0.010541	  0.088331	
5.45565	  0.014870	  0.011051	  0.103629	
5.48891	  0.016089	  0.011710	  0.117947	
5.52218	  0.017398	  0.012615	  0.130810	
5.55544	  0.018920	  0.013866	  0.142422	
5.58871	  0.020810	  0.015532	  0.153848	
5.62198	  0.023177	  0.017646	  0.166912	
5.65524	  0.026003	  0.020243	  0.183668	
5.68851	  0.029140	  0.023410	  0.205713	
5.72177	  0.032395	  0.027311	  0.233892	
5.75504	  0.035632	  0.032140	  0.268563	
5.78831	  0.038836	  0.038047	  0.309944	
5.82157	  0.042100	  0.045038	  0.357913	
5.85484	  0.045544	  0.052917	  0.411218	
5.8881	  0.049218	  0.061261	  0.466821	
5.92137	  0.053037	  0.069451	  0.520268	
5.95464	  0.056788	  0.076760	  0.567198	
5.9879	  0.060200	  0.082507	  0.605087	
6.02117	  0.063052	  0.086277	  0.633902	
6.05444	  0.065245	  0.088140	  0.655189	
6.0877	  0.066834	  0.088747	  0.670416	
6.12097	  0.068038	  0.089158	  0.679980	
6.15423	  0.069211	  0.090404	  0.683467	
6.1875	  0.070749	  0.093001	  0.680657	
6.22077	  0.072932	  0.096727	  0.672408	
6.25403	  0.075792	  0.100855	  0.660939	
6.2873	  0.079111	  0.104648	  0.649418	
6.32056	  0.082574	  0.107717	  0.640932	
6.35383	  0.085928	  0.110002	  0.637182	
6.3871	  0.089055	  0.111520	  0.637577	
6.42036	  0.091937	  0.112261	  0.639268	
6.45363	  0.094594	  0.112340	  0.638192	
6.4869	  0.097009	  0.112179	  0.630689	
6.52016	  0.099052	  0.112380	  0.615081	
6.55343	  0.100446	  0.113339	  0.592422	
6.58669	  0.100819	  0.114925	  0.565794	
6.61996	  0.099812	  0.116498	  0.538387	
6.65323	  0.097174	  0.117205	  0.511665	
6.68649	  0.092834	  0.116349	  0.485125	
6.71976	  0.087014	  0.113688	  0.457824	
6.75302	  0.080343	  0.109596	  0.430315	
6.78629	  0.073793	  0.104967	  0.405258	
6.81956	  0.068319	  0.100793	  0.386178	
6.85282	  0.064385	  0.097650	  0.375404	
6.88609	  0.061767	  0.095467	  0.372771	
6.91935	  0.059821	  0.093793	  0.375784	
6.95262	  0.058005	  0.092319	  0.380778	
6.98589	  0.056230	  0.091177	  0.384153	
7.01915	  0.054763	  0.090726	  0.383122	
7.05242	  0.053855	  0.091040	  0.376054	
7.08569	  0.053447	  0.091578	  0.362659	
7.11895	  0.053182	  0.091374	  0.344060	
7.15222	  0.052629	  0.089584	  0.322630	
7.18548	  0.051489	  0.085944	  0.301574	
7.21875	  0.049696	  0.080828	  0.284333	
7.25202	  0.047417	  0.074992	  0.273790	
7.28528	  0.045026	  0.069284	  0.271227	
7.31855	  0.042987	  0.064434	  0.275395	
7.35181	  0.041680	  0.060890	  0.282459	
7.38508	  0.041216	  0.058682	  0.287387	
7.41835	  0.041407	  0.057428	  0.286299	
7.45161	  0.041884	  0.056515	  0.278311	
7.48488	  0.042290	  0.055395	  0.265701	
7.51815	  0.042423	  0.053820	  0.252493	
7.55141	  0.042283	  0.051915	  0.242598	
7.58468	  0.042035	  0.050081	  0.238568	
7.61794	  0.041933	  0.048786	  0.241223	
7.65121	  0.042213	  0.048353	  0.249906	
7.68448	  0.042979	  0.048817	  0.263082	
7.71774	  0.044116	  0.049907	  0.279072	
7.75101	  0.045295	  0.051149	  0.296573	
7.78427	  0.046074	  0.052051	  0.314584	
7.81754	  0.046075	  0.052305	  0.331798	
7.85081	  0.045141	  0.051889	  0.346135	
7.88407	  0.043425	  0.051036	  0.355106	
7.91734	  0.041381	  0.050089	  0.357009	
7.9506	  0.039630	  0.049369	  0.352047	
7.98387	  0.038729	  0.049145	  0.342406	
8.01714	  0.038945	  0.049672	  0.331197	
8.0504	  0.040159	  0.051179	  0.321065	
8.08367	  0.041984	  0.053738	  0.313384	
8.11694	  0.043970	  0.057105	  0.308336	
8.1502	  0.045763	  0.060683	  0.305548	
8.18347	  0.047148	  0.063729	  0.304751	
8.21673	  0.048032	  0.065662	  0.306074	
8.25	  0.048424	  0.066284	  0.309850	
8.28327	  0.048400	  0.065770	  0.316165	
8.31653	  0.048057	  0.064507	  0.324545	
8.3498	  0.047470	  0.062923	  0.334029	
8.38306	  0.046698	  0.061389	  0.343540	
8.41633	  0.045846	  0.060164	  0.352249	
8.4496	  0.045094	  0.059352	  0.359684	
8.48286	  0.044644	  0.058858	  0.365572	
8.51613	  0.044578	  0.058416	  0.369575	
8.5494	  0.044796	  0.057724	  0.371109	
8.58266	  0.045098	  0.056627	  0.369336	
8.61593	  0.045338	  0.055206	  0.363393	
8.64919	  0.045496	  0.053696	  0.352879	
8.68246	  0.045591	  0.052293	  0.338397	
8.71573	  0.045571	  0.051024	  0.321751	
8.74899	  0.045302	  0.049753	  0.305479	
8.78226	  0.044672	  0.048320	  0.291863	
8.81552	  0.043706	  0.046692	  0.282033	
8.84879	  0.042579	  0.045015	  0.275750	
8.88206	  0.041528	  0.043552	  0.271954	
8.91532	  0.040735	  0.042545	  0.269614	
8.94859	  0.040284	  0.042122	  0.268249	
8.98185	  0.040175	  0.042287	  0.267806	
9.01512	  0.040365	  0.042965	  0.268101	
9.04839	  0.040781	  0.043998	  0.268413	
9.08165	  0.041312	  0.045115	  0.267707	
9.11492	  0.041805	  0.045936	  0.265373	
9.14819	  0.042101	  0.046080	  0.261839	
9.18145	  0.042070	  0.045349	  0.258503	
9.21472	  0.041660	  0.043866	  0.257009	
9.24798	  0.040935	  0.042047	  0.258389	
9.28125	  0.040091	  0.040426	  0.262609	
9.31452	  0.039433	  0.039448	  0.268702	
9.34778	  0.039282	  0.039364	  0.275412	
9.38105	  0.039863	  0.040236	  0.282029	
9.41431	  0.041208	  0.041974	  0.288987	
9.44758	  0.043144	  0.044371	  0.297886	
9.48085	  0.045373	  0.047146	  0.310807	
9.51411	  0.047595	  0.050032	  0.329183	
9.54738	  0.049601	  0.052861	  0.352806	
